<?xml version="1.0" encoding="utf-8"?>
<!-- Generator: Adobe Illustrator 23.0.1, SVG Export Plug-In . SVG Version: 6.00 Build 0)  -->
<svg version="1.1" id="Layer_1" xmlns="http://www.w3.org/2000/svg" xmlns:xlink="http://www.w3.org/1999/xlink" x="0px" y="0px"
	 viewBox="0 0 776.9 81.7" style="enable-background:new 0 0 776.9 81.7;" xml:space="preserve">
<style type="text/css">
	.st0{fill:#1D1D1B;}
	.st1{fill:none;}
</style>
<g>
	<path class="st0" d="M24.9,5.6h57.3l-5.3,18.2h-5.1c0.6-2.5,0.9-4.9,0.9-6.5c0-5.8-3.6-7.3-11.3-7.3H43.6l-8.2,28.7h10.9
		c10.1,0,12.6-1,15.8-10.7h4.5l-7.3,25.5h-4.6c0.5-2.5,0.8-4.4,0.8-5.9c0-4.7-2.9-4.8-10.6-4.8H34.2l-5.7,20.1
		c-0.6,2.1-0.9,3.8-0.9,5.2c0,4.1,3.1,5.5,12.1,5.7l-0.9,3.6H4.3l1.1-3.6c6.8-0.3,10.1-1.1,12.5-9.1l13.4-47
		c0.4-1.6,0.6-2.8,0.6-3.9c0-4.1-3.2-4.5-8-4.6L24.9,5.6L24.9,5.6z"/>
	<path class="st0" d="M70.7,62.9c0-7.6,3-16.3,7.7-23.5c4.6-7.2,11-13.3,20.9-13.3c8.5,0,15.8,4.1,15.8,15.9
		c0,7.6-3.1,16.3-7.8,23.5c-4.6,7.2-11,13.3-20.9,13.3C77.9,78.8,70.7,74.7,70.7,62.9L70.7,62.9z M100.3,59.5
		c4.2-9.1,5.9-16.8,5.9-21.6c0-5.4-2.1-7.5-5.6-7.5c-6.4,0-11.4,7.3-15,15c-4.3,9.1-6,16.8-6,21.6c0,5.4,2.1,7.5,5.7,7.5
		C91.7,74.5,96.6,67.2,100.3,59.5L100.3,59.5z"/>
	<path class="st0" d="M121.7,70.4c0-2.4,0.7-5.5,2.2-9l9.5-21.4c1-1.9,1.3-3.3,1.3-4.1c0-1.3-0.6-1.7-1.5-1.7
		c-1.9,0-4.3,2.4-7.7,8.2l-3.3-1c3.9-8.5,8.8-15.4,15.5-15.4c3.6,0,6.4,1.6,6.4,5.9c0,2-1.1,5.5-2.6,9.2l-9,20
		c-1.4,3-1.8,5.1-1.8,6.4c0,2.4,1.6,3.2,3.3,3.2c9.6,0,22.3-25,28.5-43.4h8.1l-11.5,37.5c-0.4,1.6-0.6,2.7-0.6,3.6
		c0,1.3,0.5,1.8,1.6,1.8c1.8,0,4-2.4,7.4-8.3l3.3,1.1c-3.9,8.5-8.4,15.4-15.2,15.4c-3.1,0-5.7-1.9-5.7-5.7s0.8-6.4,8.7-24.8H157
		c-11.1,22.3-17.6,31-27,31C124.9,78.8,121.7,75.7,121.7,70.4L121.7,70.4z"/>
	<path class="st0" d="M204.7,72.1c0-2.8,1.4-6.3,2.4-9.1l7.6-17.8c1-2.5,2-5.4,2-7.7s-1.3-3.3-3.2-3.3c-8.9,0-22,24.8-28.2,43.2
		h-8.1l11-36.5c0.5-1.4,1.2-3.7,1.2-5.1c0-1.3-0.6-1.6-1.6-1.6c-1.8,0-4.1,2.4-7.4,8.2l-3.3-1c3.9-8.5,8.8-15.4,15.6-15.4
		c3.6,0,5.7,2,5.7,5.7c0,4.3-2.1,9.3-9.2,25.1h1.6c10.8-22.4,18-30.8,26.6-30.8c5.5,0,8.9,2.6,8.9,7.9c0,2.6-1.1,6.7-2.5,10l-8,19.1
		c-1.3,2.8-1.8,4.2-1.8,5.3c0,1.3,0.6,1.8,1.6,1.8c1.9,0,4.2-2.5,7.6-8.3l3.3,1c-3.9,8.5-8.8,15.5-15.5,15.5
		C207.3,78.3,204.7,76.2,204.7,72.1L204.7,72.1z"/>
	<path class="st0" d="M277.3,61.8l3.2,1c-3.8,8.8-9,15.5-15,15.5c-3.3,0-6.5-1.6-6.5-6.2c0-3.6,2.4-9.7,10.4-24.3h-1.6
		c-13.1,22-18.7,31-28,31c-5,0-9.1-3-9.1-10.7c0-15.7,20.7-40.8,34.9-40.8c2.4,0,5,0.6,7,2l4.5-13.3c1.6-4.9,0.8-7.2-3.6-7.4
		l-6.2-0.3l0.8-3.2l19.1-2.7h2.5l-21.4,64.2c-0.7,2.3-0.1,3.6,1.3,3.6C271.6,70.2,273.9,68,277.3,61.8L277.3,61.8z M269.7,38.6
		c-2.7-4.2-7-5.8-9.7-5.9c-6.2,0.3-20.8,21.6-20.8,32.4c0,3.9,2.2,5.1,4.5,5.1C250,70.2,257.5,59.3,269.7,38.6L269.7,38.6z"/>
	<path class="st0" d="M294.5,53.8c-0.4,2.1-0.7,4.3-0.7,6.4c0,7.7,4.3,9.9,9,9.9s9.1-2.8,13-9.3l3.3,0.8
		c-2.2,5.9-8.3,17.1-19.4,17.1c-8.3,0-14.4-4.2-14.4-15.1c0-15.5,13.6-37.7,30.3-37.7c6.2,0,11.1,2,11.1,8.5
		C326.6,44,313.9,53.6,294.5,53.8L294.5,53.8z M295.6,50c13.3-1.5,20.5-9.1,20.5-14.8c0-2.6-1.5-3.8-3.9-3.8
		C305.9,31.4,298.8,40.3,295.6,50z"/>
	<path class="st0" d="M329.9,77.4l11-36.7c0.8-3,1.2-4.1,1.2-4.9c0-1.2-0.5-1.6-1.5-1.6c-1.8,0-4.1,2.4-7.5,8.2l-3.3-1
		c3.9-8.5,8.8-15.4,15.5-15.4c3.6,0,6.1,1.5,6.1,5.8c0,3.4-2,8.2-9.6,25.1h1.6c7.2-13.9,12.9-22.8,16-26.2c2.6-3.3,5.1-4.8,8-4.8
		s6.5,2,6.5,6.5c0,4.1-2.1,7.5-5.9,7.5c-1.9,0-2.7-0.6-3.4-1.6c-0.8-1.2-1.3-3-2.6-4.2c-7.7,7-17.8,24.8-24.1,43.1L329.9,77.4
		L329.9,77.4z"/>
	<path class="st0" d="M369,70.6c0-3.6,2.1-6.2,5.9-6.2c2.7,0,4.1,1.8,5.3,4.2c0.8,2.1,1,4.3,2.8,6.9c3.7-0.4,7.5-3.3,7.5-7.2
		c0-2.5-1.3-4.9-5-10.8l-2-3.3c-3.8-6.3-5.3-9.5-5.3-13.6c0-9.1,8.1-14.6,17.7-14.6c6.2,0,12,2.8,12,8.2c0,3.6-2.1,6.2-5.8,6.2
		c-2.8,0-4.1-1.8-5.3-4.2c-1-2.1-1-4.3-3-6.9c-3.6,0.4-7.4,3.3-7.4,7.2c0,2.5,1.3,4.9,4.9,10.8l2,3.3c3.9,6.3,5.4,9.5,5.4,13.6
		c0,9.1-8.1,14.6-17.7,14.6C374.9,78.8,369,76.1,369,70.6L369,70.6z"/>
</g>
<g>
	<path class="st0" d="M435.9,77.4V3.5H458l18.8,53.4c0.4,1.3,0.8,2.5,1.1,3.5c0.3,1.1,0.6,2.2,0.8,3.2c0.3-1,0.5-2.1,0.8-3.2
		c0.3-1.1,0.6-2.3,1.1-3.5l18-53.4h21.8v73.9h-13.3V27.6c0-1.9,0-3.8,0-5.5c0-1.8,0.1-3.5,0.2-5l-20.3,60.3h-16.9l-21.4-60.3
		c0.1,1.6,0.2,3.3,0.3,5.1c0,1.8,0,3.6,0,5.5v49.7L435.9,77.4L435.9,77.4z"/>
	<path class="st0" d="M548.6,79.3c-3,0-5.8-0.6-8.5-1.9s-4.9-3.1-6.7-5.5c-1.7-2.4-2.6-5.3-2.6-8.7c0-3.9,0.9-7,2.7-9.3
		s4.2-4.1,7.3-5.3c3.1-1.2,6.4-2,10.1-2.5l7.4-1c1.4-0.2,2.5-0.5,3.4-0.9c0.8-0.4,1.4-0.9,1.8-1.5s0.5-1.4,0.5-2.2
		c0-1.8-0.7-3.4-2.2-4.8s-3.5-2-6.3-2c-2,0-3.7,0.3-5.2,1.1c-1.5,0.7-2.7,1.7-3.5,3c-0.8,1.3-1.4,2.9-1.6,4.7h-13.3
		c0.3-3.6,1.4-6.8,3.3-9.5c1.9-2.8,4.6-4.9,7.9-6.5c3.3-1.5,7.2-2.3,11.7-2.3c5.3,0,9.5,0.9,12.8,2.7c3.2,1.8,5.6,4.4,7.1,7.8
		s2.2,7.5,2.2,12.4v30.3h-11.9v-2.1c0-0.8,0-1.7,0.2-2.5s0.2-1.6,0.4-2.5c-1.3,2.5-3.4,4.7-6.1,6.4C556.6,78.4,553,79.3,548.6,79.3
		L548.6,79.3z M552,69.8c2.3,0,4.4-0.5,6.3-1.6c1.9-1.1,3.3-2.5,4.4-4.4c1.1-1.9,1.6-4,1.6-6.4v-5.6c-0.6,0.5-1.3,0.9-2.3,1.2
		s-2.2,0.7-3.8,1l-4.2,0.8c-2,0.3-3.7,0.8-5.3,1.5c-1.5,0.6-2.8,1.5-3.6,2.5c-0.8,1-1.3,2.3-1.3,3.8c0,2.3,0.8,4,2.4,5.2
		C547.9,69.1,549.8,69.7,552,69.8L552,69.8z"/>
	<path class="st0" d="M587.5,77.4V3.5h12.9v42.8c0.6-0.8,1.2-1.6,1.8-2.4s1.3-1.5,1.8-2.2l14.8-15.8h16.8l-35.3,36.1v15.4
		L587.5,77.4L587.5,77.4z M620.7,77.4L604.5,55l9.1-7.9l23.5,30.3H620.7z"/>
	<path class="st0" d="M661.9,79.3c-5.1,0-9.7-1.1-13.6-3.2c-3.9-2.2-7-5.3-9.3-9.5c-2.3-4.2-3.4-9.2-3.4-15.1
		c0-5.4,1.1-10.2,3.3-14.3c2.2-4.1,5.3-7.3,9.2-9.6c3.9-2.3,8.4-3.4,13.3-3.4c5.3,0,9.8,1.1,13.5,3.4s6.5,5.5,8.5,9.7
		c1.9,4.2,2.9,9,2.9,14.7v2.8h-37.5c0.1,2.7,0.7,5.1,1.7,7.3c1.1,2.2,2.6,3.9,4.5,5.2c1.9,1.3,4.2,1.9,6.8,1.9
		c2.8,0,5.2-0.8,7.3-2.3c2-1.5,3.3-3.6,3.7-6.3H686c-0.3,3.5-1.5,6.7-3.6,9.5c-2,2.8-4.8,5-8.3,6.7
		C670.6,78.4,666.6,79.2,661.9,79.3L661.9,79.3z M648.7,45.5h24.4c-0.1-3.5-1.2-6.3-3.3-8.5c-2.1-2.2-4.9-3.2-8.4-3.2
		c-2.3,0-4.4,0.5-6.2,1.5c-1.8,1-3.3,2.4-4.4,4.2S649,43.2,648.7,45.5L648.7,45.5z"/>
	<path class="st0" d="M694.9,77.4V25.8h12.9v3.9c0,0.9,0,1.8-0.1,2.6c-0.1,0.8-0.2,1.8-0.3,2.7c0.9-2,2.1-3.8,3.4-5.4
		c1.4-1.7,3-3,5-4s4.2-1.5,6.7-1.5c0.6,0,1.1,0,1.5,0c0.4,0,0.8,0.1,1.3,0.3v12.5c-0.4-0.1-0.9-0.3-1.5-0.3
		c-0.6-0.1-1.3-0.1-2.2-0.1c-2.6,0-4.9,0.5-7,1.5s-3.7,2.6-4.9,4.8c-1.2,2.2-1.8,5.2-1.8,9v25.5L694.9,77.4L694.9,77.4z"/>
	<path class="st0" d="M752.4,79.3c-4.9,0-9.1-0.8-12.6-2.4c-3.5-1.6-6.3-3.9-8.3-6.8s-3.2-6.4-3.4-10.4h13.1c0.1,3,1.1,5.5,3,7.3
		c1.9,1.8,4.5,2.8,8,2.8c2.9,0,5.2-0.6,6.9-1.8c1.7-1.2,2.6-2.8,2.6-4.8c0-1.8-0.7-3.1-2.2-4c-1.4-0.9-3.5-1.6-6.3-2.1l-6.2-1.3
		c-5.3-1.1-9.5-2.9-12.5-5.4s-4.4-6-4.4-10.3c0-3,0.9-5.7,2.6-8.1c1.8-2.4,4.2-4.2,7.4-5.6c3.2-1.4,6.9-2.1,11.1-2.1
		c6.9,0,12.4,1.6,16.5,4.9c4.1,3.3,6.2,7.6,6.3,13h-12.9c-0.2-2.5-1.2-4.6-3-6.1s-4.1-2.3-7-2.3c-2.4,0-4.4,0.5-6,1.4
		s-2.4,2.3-2.4,4.2c0,1,0.3,1.8,0.8,2.6c0.5,0.7,1.4,1.4,2.6,1.9c1.2,0.5,2.9,1,5.1,1.4l6.2,1.3c3.4,0.6,6.3,1.6,8.8,3
		s4.5,3,5.9,5.1s2.1,4.6,2.1,7.7c0,3.2-0.9,6.1-2.7,8.7s-4.3,4.6-7.6,6.1C760.7,78.5,756.8,79.3,752.4,79.3L752.4,79.3z"/>
</g>
<rect x="-70.4" y="-68.6" class="st1" width="918.5" height="220"/>
</svg>
