<svg xmlns="http://www.w3.org/2000/svg" width="159.259" height="159.259" viewBox="0 0 159.259 159.259">
    <g data-name="Group 59">
        <path data-name="qr dark pixels" d="M125.963 75h6.37v6.37h-6.37zm25.481 0h12.741v12.741h12.741v12.741h6.37v6.37h-12.74V94.111h-6.37v6.37h-6.37v-12.74h-12.742v12.741h-12.741v6.37h-6.37V87.741h6.37V81.37h19.111zm25.481 6.37h6.37v6.37h-6.37zm-31.852 19.111h12.741v6.37h-12.74zm-6.37 6.37h6.37v25.481h6.37v-19.11h6.37v19.111h6.37v6.37h-12.739v6.37h-6.37v12.741h-12.741v6.37h-6.37v6.37h-19.111v6.37h12.741v6.37h-19.112v-6.37h-6.37v6.37h-6.37v-12.738h12.741v-12.741h12.741v6.37h6.37v-6.37h-6.37v-6.37h12.741v-6.37h-12.742v6.37h-12.741v-6.37h6.37V138.7h12.741v-6.37h6.37v6.37H138.7zm-12.741 6.37h6.37v6.37h-6.37zm38.222 0h6.37v6.37h-6.37zm12.741 0h6.37v12.741h6.37v19.111h-12.739V138.7h6.37v-6.37h-19.111v-6.37h6.37v-6.37h6.37zM75 125.963h25.481V138.7h-6.37v-6.37h-6.37v12.741H81.37v6.37H75V138.7h6.37v-6.37H75zm38.222 0h6.37v6.37h-6.37zm12.741 0h6.37v6.37h-6.37zm76.444 0h19.111v6.37h-19.111zm25.481 0h6.37v6.37h-6.37zm-31.852 6.37h6.37v6.37h6.37v6.37h-6.37v6.37h6.37v25.481h-12.739v-6.37h6.37v-6.37h-6.37v6.37H183.3v-6.37h-12.744v-6.37h-6.37v-6.37h-12.742v-6.37h19.111v6.37h6.37v6.37h12.741v-12.74h6.37zm25.481 0h6.37v6.37h-6.37zm-12.741 12.741h12.741v6.37h12.741v12.741h-6.37v-6.37h-12.74v-6.37h-6.37zm-121.037 6.37h6.37v12.741h-6.37zm63.7 6.37h12.741v6.37h-6.37v6.37h-6.37zm-70.074 6.37h6.37v6.37H81.37zm57.333 0h6.37v6.37h6.37v6.37h-19.105v-6.37h6.37zm76.444 0h12.741v6.37h-12.735zM75 170.556h6.37v6.37H75zm101.926 0h6.37v6.37h-6.37zm50.963 0h6.37v25.481h-19.111V183.3h-6.37v-6.37h19.111zm-6.37 12.741h6.37v6.37h-6.37zm-63.7-6.37h6.37v6.37h-6.37zm-31.852 6.37h6.37v6.37h-6.37zm12.741 0h6.37v6.37H138.7zm12.741 0h6.37v12.741h-6.37zm-19.111 6.37h6.37v12.741h25.481v-6.37h12.741v6.37h-6.37v6.37h-6.37v19.111h-19.116v6.37h-19.111v-25.481h6.37zm12.741 19.111h12.741v6.37h-12.746zm-12.741 6.37h6.37v6.37h-6.37zm76.444-12.741h6.37v6.37h6.37v-6.37h12.741v12.741h-6.37v6.37h-6.37v6.37h12.741v6.37h-44.597v-6.37h12.741v-19.11h6.37zm0 12.741h6.37v12.741h-6.37zm-25.481-6.37h12.741v12.741h-6.37v-6.37H183.3zm-19.111 19.111h6.37v6.37h-6.37z" transform="translate(-75 -75)" style="fill:#fff;fill-rule:evenodd"/>
        <path data-name="qr squares" d="M75 75h44.593v44.593H75V75zm6.37 6.37h31.852v31.852H81.37V81.37zm6.37 6.37h19.111v19.111h-19.11v-19.11zM189.667 75h44.593v44.593h-44.593V75zm6.37 6.37h31.852v31.852h-31.852V81.37zm6.37 6.37h19.111v19.111h-19.111v-19.11zM75 189.667h44.593v44.593H75v-44.593zm6.37 6.37h31.852v31.852H81.37v-31.852zm6.37 6.37h19.111v19.111h-19.11v-19.111zm89.185-25.481h31.852v31.852h-31.851v-31.852zm6.37 6.37h19.111v19.111H183.3V183.3zm6.37 6.37h6.37v6.37h-6.37v-6.37z" transform="translate(-75 -75)" style="fill:#fff;fill-rule:evenodd"/>
    </g>
</svg>
